<?xml version="1.0" encoding="UTF-8" standalone="no"?>
<svg
   height="55.201885"
   viewportHeight="60.003"
   viewportWidth="60.003"
   width="55"
   version="1.1"
   id="svg10"
   sodipodi:docname="illustra_megaphone.SVG"
   inkscape:version="1.2 (dc2aedaf03, 2022-05-15)"
   xmlns:inkscape="http://www.inkscape.org/namespaces/inkscape"
   xmlns:sodipodi="http://sodipodi.sourceforge.net/DTD/sodipodi-0.dtd"
   xmlns="http://www.w3.org/2000/svg"
   xmlns:svg="http://www.w3.org/2000/svg">
  <defs
     id="defs14" />
  <sodipodi:namedview
     id="namedview12"
     pagecolor="#ffffff"
     bordercolor="#000000"
     borderopacity="0.25"
     inkscape:showpageshadow="2"
     inkscape:pageopacity="0.0"
     inkscape:pagecheckerboard="0"
     inkscape:deskcolor="#d1d1d1"
     showgrid="false"
     inkscape:zoom="4.96"
     inkscape:cx="145.2621"
     inkscape:cy="72.681452"
     inkscape:window-width="2400"
     inkscape:window-height="1321"
     inkscape:window-x="2391"
     inkscape:window-y="-9"
     inkscape:window-maximized="1"
     inkscape:current-layer="svg10" />
  <path
     fill="#e1dede"
     d="m 50.052,18.057886 v -12.869 c 0,-1.839 -0.942,-3.502 -2.52,-4.44599997 -0.8,-0.479 -1.685,-0.726 -2.575,-0.741 -0.883,-0.024 -1.772,0.181 -2.587,0.618 L 40,1.889886 v 0.026 l -17.213,9.222 c -1.245,0.667 -2.138,1.797 -2.523,3.111 l -13.028,0.796 c -1.646,0.117 -2.948,1.406 -3.145,3.008 h -0.88 c -1.771,-0.001 -3.211,1.44 -3.211,3.21 v 5.578 c 0,1.771 1.44,3.211 3.211,3.211 h 0.885 c 0.217,1.775 1.66,3.203 3.492,3.334 l 0.464,0.028 v 17.288 c 0,2.481 2.019,4.5 4.5,4.5 2.481,0 4.5,-2.019 4.5,-4.5 v -16.74 l 3.238,0.197 c 0.41,1.327 1.337,2.451 2.628,3.095 l 17.082,8.541 v 0.026 l 2.499,1.25 c 0.737,0.369 1.53,0.552 2.321,0.552 0.008,0 0.016,-0.002 0.024,-0.002 0.009,0 0.019,0.002 0.028,0.002 0.943,0 1.884,-0.261 2.722,-0.778 1.539,-0.951 2.458,-2.6 2.458,-4.409 v -12.389 c 2.732,-0.028 4.948,-2.255 4.948,-4.995 v -2 c 0,-2.739 -2.216,-4.966 -4.948,-4.994 z m -35,32.645 c 0,1.379 -1.121,2.5 -2.5,2.5 -1.379,0 -2.5,-1.121 -2.5,-2.5 v -0.65 h 2 c 0.553,0 1,-0.447 1,-1 0,-0.553 -0.447,-1 -1,-1 h -2 v -2 h 2 c 0.553,0 1,-0.447 1,-1 0,-0.553 -0.447,-1 -1,-1 h -2 v -2 h 2 c 0.553,0 1,-0.447 1,-1 0,-0.553 -0.447,-1 -1,-1 h -2 v -2 h 2 c 0.553,0 1,-0.447 1,-1 0,-0.553 -0.447,-1 -1,-1 h -2 v -2.512 l 5,0.31 z m 28.394,-5.421 -1.446,-0.723 v -41.444 l 1.365,-0.731 c 0.422,-0.226 0.876,-0.335 1.333,-0.36 0.064,-0.002 0.126,-0.021 0.19,-0.02 0.006,0 0.011,10e-4 0.017,10e-4 0.535,0.015 1.067,0.166 1.547,0.454 0.97,0.58 1.548,1.6 1.548,2.73 v 12.863 12 12.383 c 0,1.111 -0.564,2.123 -1.51,2.707 -0.467,0.289 -0.986,0.446 -1.511,0.473 -0.521,0.018 -1.046,-0.09 -1.533,-0.333 z M 4,28.051886 H 3.211 c -0.668,0 -1.211,-0.543 -1.211,-1.21 v -5.578 c 0,-0.668 0.543,-1.211 1.211,-1.211 H 4 Z m 2.052,1.547 v -11.134 c 0,-0.746 0.583,-1.372 1.316,-1.425 l 12.684,-0.774 v 15.874 l -12.332,-0.749 c -0.936,-0.067 -1.668,-0.854 -1.668,-1.792 z m 17.76,5.866 c -1.086,-0.542 -1.76,-1.633 -1.76,-2.847 v -16.91 c 0,-1.176 0.644,-2.251 1.681,-2.806 L 40,4.185886 v 39.372 z M 53,25.051886 c 0,1.637 -1.318,2.966 -2.948,2.995 v -7.99 c 1.63,0.029 2.948,1.359 2.948,2.995 z"
     id="path2" />
  <path
     fill="#e1dede"
     d="m 31.896,12.608886 c -0.245,-0.494 -0.842,-0.699 -1.34,-0.453 l -4.451,2.201 c -1.298,0.695 -2.105,2.042 -2.105,3.516 v 2.18 c 0,0.553 0.447,1 1,1 0.553,0 1,-0.447 1,-1 v -2.18 c 0,-0.734 0.402,-1.406 1.021,-1.737 l 4.423,-2.187 c 0.494,-0.245 0.698,-0.845 0.452,-1.34 z"
     id="path6" />
  <path
     fill="#e1dede"
     d="m 25,22.051886 c -0.553,0 -1,0.447 -1,1 v 2 c 0,0.553 0.447,1 1,1 0.553,0 1,-0.447 1,-1 v -2 c 0,-0.552 -0.447,-1 -1,-1 z"
     id="path8" />
</svg>
