<?xml version="1.0" encoding="UTF-8" standalone="no"?>
<svg
   width="647.62915"
   height="632.16663"
   viewportWidth="647.64"
   viewportHeight="632.17"
   version="1.1"
   id="svg50"
   sodipodi:docname="illustration_no_data_contacts.svg"
   inkscape:version="1.2 (dc2aedaf03, 2022-05-15)"
   xmlns:inkscape="http://www.inkscape.org/namespaces/inkscape"
   xmlns:sodipodi="http://sodipodi.sourceforge.net/DTD/sodipodi-0.dtd"
   xmlns="http://www.w3.org/2000/svg"
   xmlns:svg="http://www.w3.org/2000/svg">
  <defs
     id="defs54" />
  <sodipodi:namedview
     id="namedview52"
     pagecolor="#ffffff"
     bordercolor="#000000"
     borderopacity="0.25"
     inkscape:showpageshadow="2"
     inkscape:pageopacity="0.0"
     inkscape:pagecheckerboard="0"
     inkscape:deskcolor="#d1d1d1"
     showgrid="false"
     inkscape:zoom="1.24"
     inkscape:cx="360.8871"
     inkscape:cy="373.79032"
     inkscape:window-width="2400"
     inkscape:window-height="1321"
     inkscape:window-x="2391"
     inkscape:window-y="-9"
     inkscape:window-maximized="1"
     inkscape:current-layer="svg50" />
  <path
     d="m 411.13914,142.1666 h -174.51 a 15.02,15.02 0 0 0 -15,15 v 387.85 l -2,0.61 -42.81,13.11 a 8.01,8.01 0 0 1 -9.99,-5.31 L 39.489144,137.4766 a 8,8 0 0 1 5.31,-9.99 l 65.969996,-20.2 191.25,-58.540003 65.97,-20.2 a 7.99,7.99 0 0 1 9.99,5.3 l 32.55,106.320003 z"
     fill="#f2f2f2"
     id="path28" />
  <path
     d="m 449.21914,140.1666 -39.23,-128.140003 a 16.99,16.99 0 0 0 -21.23,-11.2799995 l -92.75,28.3899995 -191.24,58.55 -92.749996,28.400003 a 17.02,17.02 0 0 0 -11.28000023,21.23 L 134.81914,575.2466 a 17.03,17.03 0 0 0 16.26,12.03 16.79,16.79 0 0 0 4.97,-0.75 l 63.58,-19.46 2,-0.62 v -2.09 l -2,0.61 -64.17,19.65 a 15.01,15.01 0 0 1 -18.73,-9.95 L 2.6591438,136.7266 a 14.98,14.98 0 0 1 9.9500002,-18.73 l 92.749996,-28.400003 191.24,-58.54 92.75,-28.3999995 a 15.16,15.16 0 0 1 4.41,-0.66 15.01,15.01 0 0 1 14.32,10.6099995 l 39.05,127.560003 0.62,2 h 2.08 z"
     fill="#3f3d56"
     id="path30" />
  <path
     d="m 122.66914,127.8166 a 9.02,9.02 0 0 1 -8.61,-6.37 l -12.88,-42.070003 a 9,9 0 0 1 5.97,-11.24 l 175.94,-53.86 a 9.01,9.01 0 0 1 11.24,5.97 l 12.88,42.07 a 9.01,9.01 0 0 1 -5.97,11.24 l -175.94,53.870003 a 8.98,8.98 0 0 1 -2.63,0.39 z"
     fill="#4f9fd1"
     id="path32" />
  <path
     d="m 190.13914,24.946597 m -20,0 a 20,20 0 1 1 40,0 20,20 0 1 1 -40,0"
     fill="#4f9fd1"
     id="path34" />
  <path
     d="m 190.13914,24.946597 m -12.66,0 a 12.665,12.665 0 1 1 25.33,0 12.665,12.665 0 1 1 -25.33,0"
     fill="#ffffff"
     id="path36" />
  <path
     d="m 602.62914,582.1666 h -338 a 8.51,8.51 0 0 1 -8.5,-8.5 v -405 a 8.51,8.51 0 0 1 8.5,-8.5 h 338 a 8.51,8.51 0 0 1 8.5,8.5 v 405 a 8.51,8.51 0 0 1 -8.5,8.5 z"
     fill="#e6e6e6"
     id="path38" />
  <path
     d="m 447.12914,140.1666 h -210.5 a 17.02,17.02 0 0 0 -17,17 v 407.8 l 2,-0.61 v -407.19 a 15.02,15.02 0 0 1 15,-15 h 211.12 z m 183.5,0 h -394 a 17.02,17.02 0 0 0 -17,17 v 458 a 17.02,17.02 0 0 0 17,17 h 394 a 17.02,17.02 0 0 0 17,-17 v -458 a 17.02,17.02 0 0 0 -17,-17 z m 15,475 a 15.02,15.02 0 0 1 -15,15 h -394 a 15.02,15.02 0 0 1 -15,-15 v -458 a 15.02,15.02 0 0 1 15,-15 h 394 a 15.02,15.02 0 0 1 15,15 z"
     fill="#3f3d56"
     id="path40" />
  <path
     d="m 525.62914,184.1666 h -184 a 9.01,9.01 0 0 1 -9,-9 v -44 a 9.01,9.01 0 0 1 9,-9 h 184 a 9.01,9.01 0 0 1 9,9 v 44 a 9.01,9.01 0 0 1 -9,9 z"
     fill="#4f9fd1"
     id="path42" />
  <path
     d="m 433.62914,105.1666 m -20,0 a 20,20 0 1 1 40,0 20,20 0 1 1 -40,0"
     fill="#4f9fd1"
     id="path44" />
  <path
     d="m 433.62914,105.1666 m -12.18,0 a 12.18,12.18 0 1 1 24.36,0 12.18,12.18 0 1 1 -24.36,0"
     fill="#ffffff"
     id="path46" />
  <path
     d="m 564.49914,268.4666 -23.14,-20.93 -23.14,20.93 -23.16,-20.93 -23.14,20.93 23.14,20.93 -23.14,20.93 23.14,20.94 23.16,-20.94 23.14,20.94 23.14,-20.94 -23.14,-20.93 z m -28.02,162.68 c -11.37,-5.53 -22.88,-11.85 -34.78,-16.25 -22.98,-8.48 -21.42,16.59 -37.86,24.71 -10.67,5.3 -25.71,-4.28 -35.02,-9.59 -16.27,-9.26 -30.69,-21.44 -42.68,-35.56 -6.12,-7.21 -19.69,-20.76 -18.02,-30.87 2.65,-16.04 23.65,-16.84 17.64,-36.47 -3.21,-10.49 -8.95,-20.84 -13.26,-30.97 -5.78,-13.56 -8.13,-22.26 -24.96,-21.52 -12.13,0.54 -20.2,5.24 -27.66,14.03 -20.18,23.78 -17.14,55.87 -3.57,81.94 19.2,36.94 52.13,71.73 87.32,94.22 23.93,15.3 55.45,29.2 84.42,31.57 21.21,1.72 50.88,-8.66 58.48,-29.48 -0.54,1.45 -1.05,2.86 -1.29,3.52 0.2,-0.51 0.57,-1.57 1.29,-3.52 0.29,-0.84 0.51,-1.39 0.7,-1.92 -0.21,0.57 -0.44,1.22 -0.69,1.88 6.68,-18.35 7.48,-27.19 -10.07,-35.72 z m 10.76,33.85 c 0.26,-0.73 0.49,-1.36 0.61,-1.7 -0.1,0.28 -0.31,0.89 -0.61,1.7 z"
     stroke-width="15.401"
     fill="#b3b3b3"
     id="path48" />
</svg>
